<svg id="Layer_1" data-name="Layer 1" xmlns="http://www.w3.org/2000/svg" viewBox="0 0 213.76 170.57"><defs><style>.cls-1{fill:#231f20;}.cls-2{font-size:31.53px;stroke:#231f20;stroke-width:0.25px;font-family:Gilroy-ExtraBold, Gilroy;font-weight:800;}.cls-2,.cls-9{fill:#fff;}.cls-2,.cls-8{stroke-miterlimit:10;}.cls-3{letter-spacing:-0.01em;}.cls-4{letter-spacing:-0.02em;}.cls-5{letter-spacing:0em;}.cls-6{letter-spacing:0em;}.cls-7{letter-spacing:-0.04em;}.cls-8{fill:none;stroke:#fff;}</style></defs><rect class="cls-1" width="213.76" height="170.57"/><text class="cls-2" transform="translate(29.44 67.48)">Cl<tspan class="cls-3" x="30.87" y="0">e</tspan><tspan x="49" y="0">an</tspan><tspan x="0" y="37.84">Den</tspan><tspan class="cls-4" x="59.06" y="37.84">t</tspan><tspan class="cls-5" x="70.67" y="37.84">al </tspan><tspan class="cls-6" x="106.39" y="37.84">C</tspan><tspan class="cls-7" x="128.91" y="37.84">o</tspan><tspan x="146.25" y="37.84">.</tspan></text><line class="cls-8" x1="31.24" y1="123.85" x2="160.84" y2="123.85"/><line class="cls-8" x1="31.24" y1="128.36" x2="160.84" y2="128.36"/><circle class="cls-9" cx="175.95" cy="125.52" r="7.37"/><path class="cls-1" d="M467.94,344.59a1.53,1.53,0,0,0-1-1,2.18,2.18,0,0,0-1.81.24,2.15,2.15,0,0,0-1.8-.24,1.56,1.56,0,0,0-1,1,2.33,2.33,0,0,0,.31,2.05,3.1,3.1,0,0,1,.53,1.34v.09a5.12,5.12,0,0,0,.28,1.18c.15.34.34.53.56.55s.44-.17.59-.59a4.91,4.91,0,0,0,.24-1.09,1.15,1.15,0,0,1,.17-.55.11.11,0,0,1,.09,0,.12.12,0,0,1,.1,0,1.15,1.15,0,0,1,.17.55,4.91,4.91,0,0,0,.24,1.09c.14.4.33.59.55.59h0c.22,0,.41-.21.56-.55a4.7,4.7,0,0,0,.27-1.18l0-.08a3.22,3.22,0,0,1,.53-1.36A2.3,2.3,0,0,0,467.94,344.59Z" transform="translate(-289.21 -221.12)"/></svg>